<?xml version="1.0" encoding="UTF-8"?>
<svg id="Layer_1" xmlns="http://www.w3.org/2000/svg" version="1.1" viewBox="0 0 562.3654 558.7461">
  <!-- Generator: Adobe Illustrator 30.2.1, SVG Export Plug-In . SVG Version: 2.1.1 Build 1)  -->
  <defs>
    <style>
      .st0 {
        fill: none;
        opacity: .1;
        stroke: #6d6e71;
        stroke-linejoin: round;
      }
    </style>
  </defs>
  <line class="st0" x1="561.8701" y1="279.373" x2="551.4129" y2="203.9579"/>
  <line class="st0" x1="561.8701" y1="279.373" x2="520.8166" y2="134.1359"/>
  <line class="st0" x1="561.8701" y1="279.373" x2="472.3506" y2="75.0855"/>
  <line class="st0" x1="561.8701" y1="279.373" x2="409.6094" y2="31.1862"/>
  <line class="st0" x1="561.8701" y1="279.373" x2="337.2461" y2="5.6938"/>
  <line class="st0" x1="561.8701" y1="279.373" x2="260.6275" y2=".4989"/>
  <line class="st0" x1="561.8701" y1="279.373" x2="185.4363" y2="15.9867"/>
  <line class="st0" x1="561.8701" y1="279.373" x2="117.2489" y2="51.0089"/>
  <line class="st0" x1="561.8701" y1="279.373" x2="61.1225" y2="102.9676"/>
  <line class="st0" x1="561.8701" y1="279.373" x2="21.2197" y2="168.0096"/>
  <line class="st0" x1="561.8701" y1="279.373" x2=".5" y2="241.311"/>
  <line class="st0" x1="561.8701" y1="279.373" x2=".5" y2="317.4352"/>
  <line class="st0" x1="561.8701" y1="279.373" x2="21.2197" y2="390.7364"/>
  <line class="st0" x1="561.8701" y1="279.373" x2="61.1225" y2="455.7784"/>
  <line class="st0" x1="561.8701" y1="279.373" x2="117.2489" y2="507.7373"/>
  <line class="st0" x1="561.8701" y1="279.373" x2="185.4363" y2="542.7593"/>
  <line class="st0" x1="561.8701" y1="279.373" x2="260.6276" y2="558.2472"/>
  <line class="st0" x1="561.8701" y1="279.373" x2="337.246" y2="553.0523"/>
  <line class="st0" x1="561.8701" y1="279.373" x2="409.6093" y2="527.5599"/>
  <line class="st0" x1="561.8701" y1="279.373" x2="472.3506" y2="483.6606"/>
  <line class="st0" x1="561.8701" y1="279.373" x2="520.8166" y2="424.6102"/>
  <line class="st0" x1="561.8701" y1="279.373" x2="551.4129" y2="354.7882"/>
  <line class="st0" x1="551.4129" y1="203.9579" x2="520.8166" y2="134.1359"/>
  <line class="st0" x1="551.4129" y1="203.9579" x2="472.3506" y2="75.0855"/>
  <line class="st0" x1="551.4129" y1="203.9579" x2="409.6094" y2="31.1862"/>
  <line class="st0" x1="551.4129" y1="203.9579" x2="337.2461" y2="5.6938"/>
  <line class="st0" x1="551.4129" y1="203.9579" x2="260.6275" y2=".4989"/>
  <line class="st0" x1="551.4129" y1="203.9579" x2="185.4363" y2="15.9867"/>
  <line class="st0" x1="551.4129" y1="203.9579" x2="117.2489" y2="51.0089"/>
  <line class="st0" x1="551.4129" y1="203.9579" x2="61.1225" y2="102.9676"/>
  <line class="st0" x1="551.4129" y1="203.9579" x2="21.2197" y2="168.0096"/>
  <line class="st0" x1="551.4129" y1="203.9579" x2=".5" y2="241.311"/>
  <line class="st0" x1="551.4129" y1="203.9579" x2=".5" y2="317.4352"/>
  <line class="st0" x1="551.4129" y1="203.9579" x2="21.2197" y2="390.7364"/>
  <line class="st0" x1="551.4129" y1="203.9579" x2="61.1225" y2="455.7784"/>
  <line class="st0" x1="551.4129" y1="203.9579" x2="117.2489" y2="507.7373"/>
  <line class="st0" x1="551.4129" y1="203.9579" x2="185.4363" y2="542.7593"/>
  <line class="st0" x1="551.4129" y1="203.9579" x2="260.6276" y2="558.2472"/>
  <line class="st0" x1="551.4129" y1="203.9579" x2="337.246" y2="553.0523"/>
  <line class="st0" x1="551.4129" y1="203.9579" x2="409.6093" y2="527.5599"/>
  <line class="st0" x1="551.4129" y1="203.9579" x2="472.3506" y2="483.6606"/>
  <line class="st0" x1="551.4129" y1="203.9579" x2="520.8166" y2="424.6102"/>
  <line class="st0" x1="551.4129" y1="203.9579" x2="551.4129" y2="354.7882"/>
  <line class="st0" x1="520.8166" y1="134.1359" x2="472.3506" y2="75.0855"/>
  <line class="st0" x1="520.8166" y1="134.1359" x2="409.6094" y2="31.1862"/>
  <line class="st0" x1="520.8166" y1="134.1359" x2="337.2461" y2="5.6938"/>
  <line class="st0" x1="520.8166" y1="134.1359" x2="260.6275" y2=".4989"/>
  <line class="st0" x1="520.8166" y1="134.1359" x2="185.4363" y2="15.9867"/>
  <line class="st0" x1="520.8166" y1="134.1359" x2="117.2489" y2="51.0089"/>
  <line class="st0" x1="520.8166" y1="134.1359" x2="61.1225" y2="102.9676"/>
  <line class="st0" x1="520.8166" y1="134.1359" x2="21.2197" y2="168.0096"/>
  <line class="st0" x1="520.8166" y1="134.1359" x2=".5" y2="241.311"/>
  <line class="st0" x1="520.8166" y1="134.1359" x2=".5" y2="317.4352"/>
  <line class="st0" x1="520.8166" y1="134.1359" x2="21.2197" y2="390.7364"/>
  <line class="st0" x1="520.8166" y1="134.1359" x2="61.1225" y2="455.7784"/>
  <line class="st0" x1="520.8166" y1="134.1359" x2="117.2489" y2="507.7373"/>
  <line class="st0" x1="520.8166" y1="134.1359" x2="185.4363" y2="542.7593"/>
  <line class="st0" x1="520.8166" y1="134.1359" x2="260.6276" y2="558.2472"/>
  <line class="st0" x1="520.8166" y1="134.1359" x2="337.246" y2="553.0523"/>
  <line class="st0" x1="520.8166" y1="134.1359" x2="409.6093" y2="527.5599"/>
  <line class="st0" x1="520.8166" y1="134.1359" x2="472.3506" y2="483.6606"/>
  <line class="st0" x1="520.8166" y1="134.1359" x2="520.8166" y2="424.6102"/>
  <line class="st0" x1="520.8166" y1="134.1359" x2="551.4129" y2="354.7882"/>
  <line class="st0" x1="472.3506" y1="75.0855" x2="409.6094" y2="31.1862"/>
  <line class="st0" x1="472.3506" y1="75.0855" x2="337.2461" y2="5.6938"/>
  <line class="st0" x1="472.3506" y1="75.0855" x2="260.6275" y2=".4989"/>
  <line class="st0" x1="472.3506" y1="75.0855" x2="185.4363" y2="15.9867"/>
  <line class="st0" x1="472.3506" y1="75.0855" x2="117.2489" y2="51.0089"/>
  <line class="st0" x1="472.3506" y1="75.0855" x2="61.1225" y2="102.9676"/>
  <line class="st0" x1="472.3506" y1="75.0855" x2="21.2197" y2="168.0096"/>
  <line class="st0" x1="472.3506" y1="75.0855" x2=".5" y2="241.311"/>
  <line class="st0" x1="472.3506" y1="75.0855" x2=".5" y2="317.4352"/>
  <line class="st0" x1="472.3506" y1="75.0855" x2="21.2197" y2="390.7364"/>
  <line class="st0" x1="472.3506" y1="75.0855" x2="61.1225" y2="455.7784"/>
  <line class="st0" x1="472.3506" y1="75.0855" x2="117.2489" y2="507.7373"/>
  <line class="st0" x1="472.3506" y1="75.0855" x2="185.4363" y2="542.7593"/>
  <line class="st0" x1="472.3506" y1="75.0855" x2="260.6276" y2="558.2472"/>
  <line class="st0" x1="472.3506" y1="75.0855" x2="337.246" y2="553.0523"/>
  <line class="st0" x1="472.3506" y1="75.0855" x2="409.6093" y2="527.5599"/>
  <line class="st0" x1="472.3506" y1="75.0855" x2="472.3506" y2="483.6606"/>
  <line class="st0" x1="472.3506" y1="75.0855" x2="520.8166" y2="424.6102"/>
  <line class="st0" x1="472.3506" y1="75.0855" x2="551.4129" y2="354.7882"/>
  <line class="st0" x1="409.6094" y1="31.1862" x2="337.2461" y2="5.6938"/>
  <line class="st0" x1="409.6094" y1="31.1862" x2="260.6275" y2=".4989"/>
  <line class="st0" x1="409.6094" y1="31.1862" x2="185.4363" y2="15.9867"/>
  <line class="st0" x1="409.6094" y1="31.1862" x2="117.2489" y2="51.0089"/>
  <line class="st0" x1="409.6094" y1="31.1862" x2="61.1225" y2="102.9676"/>
  <line class="st0" x1="409.6094" y1="31.1862" x2="21.2197" y2="168.0096"/>
  <line class="st0" x1="409.6094" y1="31.1862" x2=".5" y2="241.311"/>
  <line class="st0" x1="409.6094" y1="31.1862" x2=".5" y2="317.4352"/>
  <line class="st0" x1="409.6094" y1="31.1862" x2="21.2197" y2="390.7364"/>
  <line class="st0" x1="409.6094" y1="31.1862" x2="61.1225" y2="455.7784"/>
  <line class="st0" x1="409.6094" y1="31.1862" x2="117.2489" y2="507.7373"/>
  <line class="st0" x1="409.6094" y1="31.1862" x2="185.4363" y2="542.7593"/>
  <line class="st0" x1="409.6094" y1="31.1862" x2="260.6276" y2="558.2472"/>
  <line class="st0" x1="409.6094" y1="31.1862" x2="337.246" y2="553.0523"/>
  <line class="st0" x1="409.6094" y1="31.1862" x2="409.6093" y2="527.5599"/>
  <line class="st0" x1="409.6094" y1="31.1862" x2="472.3506" y2="483.6606"/>
  <line class="st0" x1="409.6094" y1="31.1862" x2="520.8166" y2="424.6102"/>
  <line class="st0" x1="409.6094" y1="31.1862" x2="551.4129" y2="354.7882"/>
  <line class="st0" x1="337.2461" y1="5.6938" x2="260.6275" y2=".4989"/>
  <line class="st0" x1="337.2461" y1="5.6938" x2="185.4363" y2="15.9867"/>
  <line class="st0" x1="337.2461" y1="5.6938" x2="117.2489" y2="51.0089"/>
  <line class="st0" x1="337.2461" y1="5.6938" x2="61.1225" y2="102.9676"/>
  <line class="st0" x1="337.2461" y1="5.6938" x2="21.2197" y2="168.0096"/>
  <line class="st0" x1="337.2461" y1="5.6938" x2=".5" y2="241.311"/>
  <line class="st0" x1="337.2461" y1="5.6938" x2=".5" y2="317.4352"/>
  <line class="st0" x1="337.2461" y1="5.6938" x2="21.2197" y2="390.7364"/>
  <line class="st0" x1="337.2461" y1="5.6938" x2="61.1225" y2="455.7784"/>
  <line class="st0" x1="337.2461" y1="5.6938" x2="117.2489" y2="507.7373"/>
  <line class="st0" x1="337.2461" y1="5.6938" x2="185.4363" y2="542.7593"/>
  <line class="st0" x1="337.2461" y1="5.6938" x2="260.6276" y2="558.2472"/>
  <line class="st0" x1="337.2461" y1="5.6938" x2="337.246" y2="553.0523"/>
  <line class="st0" x1="337.2461" y1="5.6938" x2="409.6093" y2="527.5599"/>
  <line class="st0" x1="337.2461" y1="5.6938" x2="472.3506" y2="483.6606"/>
  <line class="st0" x1="337.2461" y1="5.6938" x2="520.8166" y2="424.6102"/>
  <line class="st0" x1="337.2461" y1="5.6938" x2="551.4129" y2="354.7882"/>
  <line class="st0" x1="260.6275" y1=".4989" x2="185.4363" y2="15.9867"/>
  <line class="st0" x1="260.6275" y1=".4989" x2="117.2489" y2="51.0089"/>
  <line class="st0" x1="260.6275" y1=".4989" x2="61.1225" y2="102.9676"/>
  <line class="st0" x1="260.6275" y1=".4989" x2="21.2197" y2="168.0096"/>
  <line class="st0" x1="260.6275" y1=".4989" x2=".5" y2="241.311"/>
  <line class="st0" x1="260.6275" y1=".4989" x2=".5" y2="317.4352"/>
  <line class="st0" x1="260.6275" y1=".4989" x2="21.2197" y2="390.7364"/>
  <line class="st0" x1="260.6275" y1=".4989" x2="61.1225" y2="455.7784"/>
  <line class="st0" x1="260.6275" y1=".4989" x2="117.2489" y2="507.7373"/>
  <line class="st0" x1="260.6275" y1=".4989" x2="185.4363" y2="542.7593"/>
  <line class="st0" x1="260.6275" y1=".4989" x2="260.6276" y2="558.2472"/>
  <line class="st0" x1="260.6275" y1=".4989" x2="337.246" y2="553.0523"/>
  <line class="st0" x1="260.6275" y1=".4989" x2="409.6093" y2="527.5599"/>
  <line class="st0" x1="260.6275" y1=".4989" x2="472.3506" y2="483.6606"/>
  <line class="st0" x1="260.6275" y1=".4989" x2="520.8166" y2="424.6102"/>
  <line class="st0" x1="260.6275" y1=".4989" x2="551.4129" y2="354.7882"/>
  <line class="st0" x1="185.4363" y1="15.9867" x2="117.2489" y2="51.0089"/>
  <line class="st0" x1="185.4363" y1="15.9867" x2="61.1225" y2="102.9676"/>
  <line class="st0" x1="185.4363" y1="15.9867" x2="21.2197" y2="168.0096"/>
  <line class="st0" x1="185.4363" y1="15.9867" x2=".5" y2="241.311"/>
  <line class="st0" x1="185.4363" y1="15.9867" x2=".5" y2="317.4352"/>
  <line class="st0" x1="185.4363" y1="15.9867" x2="21.2197" y2="390.7364"/>
  <line class="st0" x1="185.4363" y1="15.9867" x2="61.1225" y2="455.7784"/>
  <line class="st0" x1="185.4363" y1="15.9867" x2="117.2489" y2="507.7373"/>
  <line class="st0" x1="185.4363" y1="15.9867" x2="185.4363" y2="542.7593"/>
  <line class="st0" x1="185.4363" y1="15.9867" x2="260.6276" y2="558.2472"/>
  <line class="st0" x1="185.4363" y1="15.9867" x2="337.246" y2="553.0523"/>
  <line class="st0" x1="185.4363" y1="15.9867" x2="409.6093" y2="527.5599"/>
  <line class="st0" x1="185.4363" y1="15.9867" x2="472.3506" y2="483.6606"/>
  <line class="st0" x1="185.4363" y1="15.9867" x2="520.8166" y2="424.6102"/>
  <line class="st0" x1="185.4363" y1="15.9867" x2="551.4129" y2="354.7882"/>
  <line class="st0" x1="117.2489" y1="51.0089" x2="61.1225" y2="102.9676"/>
  <line class="st0" x1="117.2489" y1="51.0089" x2="21.2197" y2="168.0096"/>
  <line class="st0" x1="117.2489" y1="51.0089" x2=".5" y2="241.311"/>
  <line class="st0" x1="117.2489" y1="51.0089" x2=".5" y2="317.4352"/>
  <line class="st0" x1="117.2489" y1="51.0089" x2="21.2197" y2="390.7364"/>
  <line class="st0" x1="117.2489" y1="51.0089" x2="61.1225" y2="455.7784"/>
  <line class="st0" x1="117.2489" y1="51.0089" x2="117.2489" y2="507.7373"/>
  <line class="st0" x1="117.2489" y1="51.0089" x2="185.4363" y2="542.7593"/>
  <line class="st0" x1="117.2489" y1="51.0089" x2="260.6276" y2="558.2472"/>
  <line class="st0" x1="117.2489" y1="51.0089" x2="337.246" y2="553.0523"/>
  <line class="st0" x1="117.2489" y1="51.0089" x2="409.6093" y2="527.5599"/>
  <line class="st0" x1="117.2489" y1="51.0089" x2="472.3506" y2="483.6606"/>
  <line class="st0" x1="117.2489" y1="51.0089" x2="520.8166" y2="424.6102"/>
  <line class="st0" x1="117.2489" y1="51.0089" x2="551.4129" y2="354.7882"/>
  <line class="st0" x1="61.1225" y1="102.9676" x2="21.2197" y2="168.0096"/>
  <line class="st0" x1="61.1225" y1="102.9676" x2=".5" y2="241.311"/>
  <line class="st0" x1="61.1225" y1="102.9676" x2=".5" y2="317.4352"/>
  <line class="st0" x1="61.1225" y1="102.9676" x2="21.2197" y2="390.7364"/>
  <line class="st0" x1="61.1225" y1="102.9676" x2="61.1225" y2="455.7784"/>
  <line class="st0" x1="61.1225" y1="102.9676" x2="117.2489" y2="507.7373"/>
  <line class="st0" x1="61.1225" y1="102.9676" x2="185.4363" y2="542.7593"/>
  <line class="st0" x1="61.1225" y1="102.9676" x2="260.6276" y2="558.2472"/>
  <line class="st0" x1="61.1225" y1="102.9676" x2="337.246" y2="553.0523"/>
  <line class="st0" x1="61.1225" y1="102.9676" x2="409.6093" y2="527.5599"/>
  <line class="st0" x1="61.1225" y1="102.9676" x2="472.3506" y2="483.6606"/>
  <line class="st0" x1="61.1225" y1="102.9676" x2="520.8166" y2="424.6102"/>
  <line class="st0" x1="61.1225" y1="102.9676" x2="551.4129" y2="354.7882"/>
  <line class="st0" x1="21.2197" y1="168.0096" x2=".5" y2="241.311"/>
  <line class="st0" x1="21.2197" y1="168.0096" x2=".5" y2="317.4352"/>
  <line class="st0" x1="21.2197" y1="168.0096" x2="21.2197" y2="390.7364"/>
  <line class="st0" x1="21.2197" y1="168.0096" x2="61.1225" y2="455.7784"/>
  <line class="st0" x1="21.2197" y1="168.0096" x2="117.2489" y2="507.7373"/>
  <line class="st0" x1="21.2197" y1="168.0096" x2="185.4363" y2="542.7593"/>
  <line class="st0" x1="21.2197" y1="168.0096" x2="260.6276" y2="558.2472"/>
  <line class="st0" x1="21.2197" y1="168.0096" x2="337.246" y2="553.0523"/>
  <line class="st0" x1="21.2197" y1="168.0096" x2="409.6093" y2="527.5599"/>
  <line class="st0" x1="21.2197" y1="168.0096" x2="472.3506" y2="483.6606"/>
  <line class="st0" x1="21.2197" y1="168.0096" x2="520.8166" y2="424.6102"/>
  <line class="st0" x1="21.2197" y1="168.0096" x2="551.4129" y2="354.7882"/>
  <line class="st0" x1=".5" y1="241.311" x2=".5" y2="317.4352"/>
  <line class="st0" x1=".5" y1="241.311" x2="21.2197" y2="390.7364"/>
  <line class="st0" x1=".5" y1="241.311" x2="61.1225" y2="455.7784"/>
  <line class="st0" x1=".5" y1="241.311" x2="117.2489" y2="507.7373"/>
  <line class="st0" x1=".5" y1="241.311" x2="185.4363" y2="542.7593"/>
  <line class="st0" x1=".5" y1="241.311" x2="260.6276" y2="558.2472"/>
  <line class="st0" x1=".5" y1="241.311" x2="337.246" y2="553.0523"/>
  <line class="st0" x1=".5" y1="241.311" x2="409.6093" y2="527.5599"/>
  <line class="st0" x1=".5" y1="241.311" x2="472.3506" y2="483.6606"/>
  <line class="st0" x1=".5" y1="241.311" x2="520.8166" y2="424.6102"/>
  <line class="st0" x1=".5" y1="241.311" x2="551.4129" y2="354.7882"/>
  <line class="st0" x1=".5" y1="317.4352" x2="21.2197" y2="390.7364"/>
  <line class="st0" x1=".5" y1="317.4352" x2="61.1225" y2="455.7784"/>
  <line class="st0" x1=".5" y1="317.4352" x2="117.2489" y2="507.7373"/>
  <line class="st0" x1=".5" y1="317.4352" x2="185.4363" y2="542.7593"/>
  <line class="st0" x1=".5" y1="317.4352" x2="260.6276" y2="558.2472"/>
  <line class="st0" x1=".5" y1="317.4352" x2="337.246" y2="553.0523"/>
  <line class="st0" x1=".5" y1="317.4352" x2="409.6093" y2="527.5599"/>
  <line class="st0" x1=".5" y1="317.4352" x2="472.3506" y2="483.6606"/>
  <line class="st0" x1=".5" y1="317.4352" x2="520.8166" y2="424.6102"/>
  <line class="st0" x1=".5" y1="317.4352" x2="551.4129" y2="354.7882"/>
  <line class="st0" x1="21.2197" y1="390.7364" x2="61.1225" y2="455.7784"/>
  <line class="st0" x1="21.2197" y1="390.7364" x2="117.2489" y2="507.7373"/>
  <line class="st0" x1="21.2197" y1="390.7364" x2="185.4363" y2="542.7593"/>
  <line class="st0" x1="21.2197" y1="390.7364" x2="260.6276" y2="558.2472"/>
  <line class="st0" x1="21.2197" y1="390.7364" x2="337.246" y2="553.0523"/>
  <line class="st0" x1="21.2197" y1="390.7364" x2="409.6093" y2="527.5599"/>
  <line class="st0" x1="21.2197" y1="390.7364" x2="472.3506" y2="483.6606"/>
  <line class="st0" x1="21.2197" y1="390.7364" x2="520.8166" y2="424.6102"/>
  <line class="st0" x1="21.2197" y1="390.7364" x2="551.4129" y2="354.7882"/>
  <line class="st0" x1="61.1225" y1="455.7784" x2="117.2489" y2="507.7373"/>
  <line class="st0" x1="61.1225" y1="455.7784" x2="185.4363" y2="542.7593"/>
  <line class="st0" x1="61.1225" y1="455.7784" x2="260.6276" y2="558.2472"/>
  <line class="st0" x1="61.1225" y1="455.7784" x2="337.246" y2="553.0523"/>
  <line class="st0" x1="61.1225" y1="455.7784" x2="409.6093" y2="527.5599"/>
  <line class="st0" x1="61.1225" y1="455.7784" x2="472.3506" y2="483.6606"/>
  <line class="st0" x1="61.1225" y1="455.7784" x2="520.8166" y2="424.6102"/>
  <line class="st0" x1="61.1225" y1="455.7784" x2="551.4129" y2="354.7882"/>
  <line class="st0" x1="117.2489" y1="507.7373" x2="185.4363" y2="542.7593"/>
  <line class="st0" x1="117.2489" y1="507.7373" x2="260.6276" y2="558.2472"/>
  <line class="st0" x1="117.2489" y1="507.7373" x2="337.246" y2="553.0523"/>
  <line class="st0" x1="117.2489" y1="507.7373" x2="409.6093" y2="527.5599"/>
  <line class="st0" x1="117.2489" y1="507.7373" x2="472.3506" y2="483.6606"/>
  <line class="st0" x1="117.2489" y1="507.7373" x2="520.8166" y2="424.6102"/>
  <line class="st0" x1="117.2489" y1="507.7373" x2="551.4129" y2="354.7882"/>
  <line class="st0" x1="185.4363" y1="542.7593" x2="260.6276" y2="558.2472"/>
  <line class="st0" x1="185.4363" y1="542.7593" x2="337.246" y2="553.0523"/>
  <line class="st0" x1="185.4363" y1="542.7593" x2="409.6093" y2="527.5599"/>
  <line class="st0" x1="185.4363" y1="542.7593" x2="472.3506" y2="483.6606"/>
  <line class="st0" x1="185.4363" y1="542.7593" x2="520.8166" y2="424.6102"/>
  <line class="st0" x1="185.4363" y1="542.7593" x2="551.4129" y2="354.7882"/>
  <line class="st0" x1="260.6276" y1="558.2472" x2="337.246" y2="553.0523"/>
  <line class="st0" x1="260.6276" y1="558.2472" x2="409.6093" y2="527.5599"/>
  <line class="st0" x1="260.6276" y1="558.2472" x2="472.3506" y2="483.6606"/>
  <line class="st0" x1="260.6276" y1="558.2472" x2="520.8166" y2="424.6102"/>
  <line class="st0" x1="260.6276" y1="558.2472" x2="551.4129" y2="354.7882"/>
  <line class="st0" x1="337.246" y1="553.0523" x2="409.6093" y2="527.5599"/>
  <line class="st0" x1="337.246" y1="553.0523" x2="472.3506" y2="483.6606"/>
  <line class="st0" x1="337.246" y1="553.0523" x2="520.8166" y2="424.6102"/>
  <line class="st0" x1="337.246" y1="553.0523" x2="551.4129" y2="354.7882"/>
  <line class="st0" x1="409.6093" y1="527.5599" x2="472.3506" y2="483.6606"/>
  <line class="st0" x1="409.6093" y1="527.5599" x2="520.8166" y2="424.6102"/>
  <line class="st0" x1="409.6093" y1="527.5599" x2="551.4129" y2="354.7882"/>
  <line class="st0" x1="472.3506" y1="483.6606" x2="520.8166" y2="424.6102"/>
  <line class="st0" x1="472.3506" y1="483.6606" x2="551.4129" y2="354.7882"/>
  <line class="st0" x1="520.8166" y1="424.6102" x2="551.4129" y2="354.7882"/>
</svg>